<?xml version="1.0" encoding="utf-8"?>
<!-- Generator: Adobe Illustrator 22.1.0, SVG Export Plug-In . SVG Version: 6.00 Build 0)  -->
<svg version="1.1" id="Layer_1" xmlns="http://www.w3.org/2000/svg" xmlns:xlink="http://www.w3.org/1999/xlink" x="0px" y="0px"
	 viewBox="0 0 100 100" style="enable-background:new 0 0 100 100;" xml:space="preserve">
<g>
	<path d="M89,3.3c-0.8-1.2-1.9-2.1-3.3-2.7C84.8,0.2,83.9,0,83,0v0H17c-1,0-1.9,0.2-2.8,0.6c-1.4,0.6-2.5,1.5-3.3,2.7
		c-0.8,1.2-1.2,2.6-1.2,4.1v85.2c0,1.5,0.4,2.9,1.2,4.1c0.8,1.2,1.9,2.1,3.3,2.7c0.9,0.4,1.8,0.6,2.8,0.6c2,0,3.7-0.7,5.2-2.2
		l27.7-28l27.7,28c1.5,1.4,3.2,2.1,5.2,2.1c1,0,2-0.2,2.8-0.5c1.4-0.6,2.5-1.5,3.3-2.7c0.8-1.2,1.2-2.6,1.2-4.1V7.4
		C90.2,5.9,89.8,4.5,89,3.3z"/>
</g>
</svg>
