<svg version="1.1" id="Layer_1" xmlns="http://www.w3.org/2000/svg" xmlns:xlink="http://www.w3.org/1999/xlink" x="0px" y="0px"
	 width="24px" height="24px" viewBox="0 0 24 24" enable-background="new 0 0 24 24" xml:space="preserve">
<path fill="none" d="M0,0h24v24H0V0z M0,0h24v24H0V0z"/>
<path d="M16,12.1V2.8c0-0.3-0.3-0.6-0.6-0.6H8.6C8.3,2.2,8,2.4,8,2.8v9.3c0,0.3-0.3,0.6-0.6,0.6H5.1c-0.5,0-0.8,0.6-0.4,1l6.9,8
	c0.2,0.3,0.6,0.3,0.9,0l6.9-8c0.3-0.4,0.1-1-0.4-1h-2.3C16.3,12.7,16,12.4,16,12.1z"/>
</svg>