<?xml version="1.0" encoding="utf-8"?>
<!-- Generator: Adobe Illustrator 22.1.0, SVG Export Plug-In . SVG Version: 6.00 Build 0)  -->
<svg version="1.1" id="Layer_1" xmlns="http://www.w3.org/2000/svg" xmlns:xlink="http://www.w3.org/1999/xlink" x="0px" y="0px"
	 viewBox="0 0 100 100" style="enable-background:new 0 0 100 100;" xml:space="preserve">
<g>
	<path d="M60.5,92.7v-7.1c0-2.1,1.4-3.6,3.6-3.6h3.6c1.4,0,2.5-1.8,1.4-3.2L54.8,64.6c-1.4-1.4-1.4-3.6,0-5l5-5c1.4-1.4,3.6-1.4,5,0
		L79,68.8c1.1,1.1,3.2,0.4,3.2-1.4v-3.6c0-2.1,1.4-3.6,3.6-3.6h7.1c2.1,0,3.6,1.4,3.6,3.6v28.5c0,2.1-1.4,3.6-3.6,3.6H64.4
		C61.9,96.2,60.5,94.8,60.5,92.7L60.5,92.7z M60.5,92.7"/>
	<path d="M35.2,45.3L21,31.1c-1.1-1.1-3.2-0.4-3.2,1.4v3.6c0,2.1-1.4,3.6-3.6,3.6H7.1c-2.1,0-3.6-1.4-3.6-3.6V7.6
		c0-2.1,1.4-3.6,3.6-3.6h28.5c2.1,0,3.6,1.4,3.6,3.6v7.1c0,2.1-1.4,3.6-3.6,3.6H32c-1.4,0-2.5,1.8-1.4,3.2l14.2,14.2
		c1.4,1.4,1.4,3.6,0,5l-5,5C38.8,46.8,36.7,46.8,35.2,45.3L35.2,45.3z M35.2,45.3"/>
</g>
</svg>
