<svg xmlns="http://www.w3.org/2000/svg" width="93" height="91.94" viewBox="0 0 93 91.94">
  <g id="expand" transform="translate(-3.5 -4)">
    <path id="Path_2" data-name="Path 2" d="M60.5,92.7V85.6A3.411,3.411,0,0,1,64.1,82h3.6a1.958,1.958,0,0,0,1.4-3.2L54.8,64.6a3.5,3.5,0,0,1,0-5l5-5a3.5,3.5,0,0,1,5,0L79,68.8a1.893,1.893,0,0,0,3.2-1.4V63.8a3.411,3.411,0,0,1,3.6-3.6h7.1a3.411,3.411,0,0,1,3.6,3.6V92.3a3.411,3.411,0,0,1-3.6,3.6H64.4c-2.5.3-3.9-1.1-3.9-3.2Zm0,0" fill="#fff"/>
    <path id="Path_3" data-name="Path 3" d="M35.2,45.3,21,31.1a1.893,1.893,0,0,0-3.2,1.4v3.6a3.411,3.411,0,0,1-3.6,3.6H7.1a3.411,3.411,0,0,1-3.6-3.6V7.6A3.411,3.411,0,0,1,7.1,4H35.6a3.411,3.411,0,0,1,3.6,3.6v7.1a3.411,3.411,0,0,1-3.6,3.6H32a1.958,1.958,0,0,0-1.4,3.2L44.8,35.7a3.5,3.5,0,0,1,0,5l-5,5c-1,1.1-3.1,1.1-4.6-.4Zm0,0" fill="#fff"/>
  </g>
</svg>
