<?xml version="1.0" encoding="utf-8"?>
<!-- Generator: Adobe Illustrator 22.1.0, SVG Export Plug-In . SVG Version: 6.00 Build 0)  -->
<svg version="1.1" id="Layer_1" xmlns="http://www.w3.org/2000/svg" xmlns:xlink="http://www.w3.org/1999/xlink" x="0px" y="0px"
	 viewBox="0 0 100 100" style="enable-background:new 0 0 100 100;" xml:space="preserve">
<g>
	<path d="M96,27.2c-2.6-2.6-5.8-3.9-9.5-3.9H48.1c-1.1,0-1.9-0.9-1.9-1.9v0c0-3.7-1.3-6.8-4-9.4C39.5,9.3,36.4,8,32.7,8H13.5
		C9.8,8,6.6,9.3,4,11.9c-2.6,2.6-4,5.8-4,9.4v57.3c0,3.7,1.3,6.8,4,9.4c2.6,2.6,5.8,3.9,9.5,3.9h73.1c3.7,0,6.9-1.3,9.5-3.9
		c2.6-2.6,4-5.8,4-9.4v-42C100,33,98.7,29.8,96,27.2L96,27.2z M96,27.2"/>
</g>
</svg>
