<svg version="1.1" id="Layer_1" xmlns="http://www.w3.org/2000/svg" xmlns:xlink="http://www.w3.org/1999/xlink" x="0px" y="0px"
	 width="24px" height="24px" viewBox="0 0 24 24" enable-background="new 0 0 24 24" xml:space="preserve">
<path fill="none" d="M0,0h24v24H0V0z M0,0h24v24H0V0z"/>
<path fill="white" d="M21.4,11.8c0.4-0.4,0.3-1-0.1-1.3l-8.7-7.6c-0.4-0.3-1-0.3-1.4,0l-8.7,8c-0.4,0.4-0.4,0.9,0,1.3l0.2,0.2
	c0.4,0.4,0.9,0.4,1.3,0.1l0.6-0.6v8.5c0,0.5,0.4,0.9,0.9,0.9h3.4c0.5,0,0.9-0.4,0.9-0.9v-6h4.3v6c0,0.5,0.4,0.9,0.9,0.9h3.6
	c0.5,0,0.9-0.4,0.9-0.9V12c0,0,0.2,0.2,0.4,0.4c0.2,0.2,0.7,0,1-0.3L21.4,11.8z"/>
</svg>
