<svg version="1.1" id="Layer_1" xmlns="http://www.w3.org/2000/svg" xmlns:xlink="http://www.w3.org/1999/xlink" x="0px" y="0px"
	 width="24px" height="24px" viewBox="0 0 24 24" enable-background="new 0 0 24 24" xml:space="preserve">
<path fill="none"  d="M0,0h24v24H0V0z M0,0h24v24H0V0z"/>
<path fill="white" d="M22.6,20.7l-5.2-5.2c1.1-1.5,1.7-3.3,1.7-5.2c0-4.9-4-8.9-8.9-8.9s-8.9,4-8.9,8.9s4,8.9,8.9,8.9c2,0,3.8-0.6,5.2-1.7
	l5.2,5.2L22.6,20.7z M10.2,16.4c-3.4,0-6.1-2.7-6.1-6.1s2.7-6.1,6.1-6.1s6.1,2.7,6.1,6.1S13.6,16.4,10.2,16.4z"/>
</svg>
